<mxfile host="app.diagrams.net" agent="Mozilla/5.0 (Windows NT 10.0; Win64; x64) AppleWebKit/537.36 (KHTML, like Gecko) Chrome/126.0.0.0 YaBrowser/24.7.0.0 Safari/537.36" version="24.8.1">
  <diagram name="Страница — 1" id="OzuXbtzcPYWJwhRSiCgP">
    <mxGraphModel dx="2043" dy="2034" grid="1" gridSize="10" guides="1" tooltips="1" connect="1" arrows="1" fold="1" page="1" pageScale="1" pageWidth="827" pageHeight="1169" math="0" shadow="0">
      <root>
        <mxCell id="0" />
        <mxCell id="1" parent="0" />
        <mxCell id="lTHJ1ySDXn06tNbgpZ6D-3" value="Просматривать записи" style="ellipse;whiteSpace=wrap;html=1;" vertex="1" parent="1">
          <mxGeometry x="95" y="40" width="140" height="70" as="geometry" />
        </mxCell>
        <mxCell id="lTHJ1ySDXn06tNbgpZ6D-5" value="Добавлять записи" style="ellipse;whiteSpace=wrap;html=1;" vertex="1" parent="1">
          <mxGeometry x="250" y="40" width="140" height="70" as="geometry" />
        </mxCell>
        <mxCell id="lTHJ1ySDXn06tNbgpZ6D-6" value="Удалять записи" style="ellipse;whiteSpace=wrap;html=1;" vertex="1" parent="1">
          <mxGeometry x="405" y="40" width="140" height="70" as="geometry" />
        </mxCell>
        <mxCell id="lTHJ1ySDXn06tNbgpZ6D-7" value="Изменять записи" style="ellipse;whiteSpace=wrap;html=1;" vertex="1" parent="1">
          <mxGeometry x="565" y="40" width="140" height="70" as="geometry" />
        </mxCell>
        <mxCell id="lTHJ1ySDXn06tNbgpZ6D-8" value="Работа с записями" style="ellipse;whiteSpace=wrap;html=1;" vertex="1" parent="1">
          <mxGeometry x="330" y="170" width="140" height="70" as="geometry" />
        </mxCell>
        <mxCell id="lTHJ1ySDXn06tNbgpZ6D-9" value="Студент" style="shape=umlActor;verticalLabelPosition=bottom;verticalAlign=top;html=1;" vertex="1" parent="1">
          <mxGeometry x="190" y="175" width="30" height="60" as="geometry" />
        </mxCell>
        <mxCell id="lTHJ1ySDXn06tNbgpZ6D-10" value="Староста" style="shape=umlActor;verticalLabelPosition=bottom;verticalAlign=top;html=1;" vertex="1" parent="1">
          <mxGeometry x="590" y="175" width="30" height="60" as="geometry" />
        </mxCell>
        <mxCell id="lTHJ1ySDXn06tNbgpZ6D-11" value="" style="endArrow=open;endFill=1;endSize=12;html=1;rounded=0;" edge="1" parent="1" source="lTHJ1ySDXn06tNbgpZ6D-9" target="lTHJ1ySDXn06tNbgpZ6D-8">
          <mxGeometry width="160" relative="1" as="geometry">
            <mxPoint x="320" y="260" as="sourcePoint" />
            <mxPoint x="480" y="260" as="targetPoint" />
          </mxGeometry>
        </mxCell>
        <mxCell id="lTHJ1ySDXn06tNbgpZ6D-13" value="1..*" style="edgeLabel;html=1;align=center;verticalAlign=middle;resizable=0;points=[];" vertex="1" connectable="0" parent="lTHJ1ySDXn06tNbgpZ6D-11">
          <mxGeometry x="0.4364" y="1" relative="1" as="geometry">
            <mxPoint x="1" y="-14" as="offset" />
          </mxGeometry>
        </mxCell>
        <mxCell id="lTHJ1ySDXn06tNbgpZ6D-12" value="" style="endArrow=open;endFill=1;endSize=12;html=1;rounded=0;" edge="1" parent="1" source="lTHJ1ySDXn06tNbgpZ6D-10" target="lTHJ1ySDXn06tNbgpZ6D-8">
          <mxGeometry width="160" relative="1" as="geometry">
            <mxPoint x="380" y="290" as="sourcePoint" />
            <mxPoint x="540" y="290" as="targetPoint" />
          </mxGeometry>
        </mxCell>
        <mxCell id="lTHJ1ySDXn06tNbgpZ6D-14" value="1..*" style="edgeLabel;html=1;align=center;verticalAlign=middle;resizable=0;points=[];" vertex="1" connectable="0" parent="1">
          <mxGeometry x="500" y="190" as="geometry" />
        </mxCell>
        <mxCell id="lTHJ1ySDXn06tNbgpZ6D-15" value="&amp;lt;&amp;lt;include&amp;gt;&amp;gt;" style="endArrow=open;endSize=12;dashed=1;html=1;rounded=0;" edge="1" parent="1" source="lTHJ1ySDXn06tNbgpZ6D-8" target="lTHJ1ySDXn06tNbgpZ6D-3">
          <mxGeometry width="160" relative="1" as="geometry">
            <mxPoint x="320" y="310" as="sourcePoint" />
            <mxPoint x="480" y="310" as="targetPoint" />
          </mxGeometry>
        </mxCell>
        <mxCell id="lTHJ1ySDXn06tNbgpZ6D-16" value="&amp;lt;&amp;lt;include&amp;gt;&amp;gt;" style="endArrow=open;endSize=12;dashed=1;html=1;rounded=0;" edge="1" parent="1" source="lTHJ1ySDXn06tNbgpZ6D-8" target="lTHJ1ySDXn06tNbgpZ6D-5">
          <mxGeometry width="160" relative="1" as="geometry">
            <mxPoint x="471" y="170" as="sourcePoint" />
            <mxPoint x="330" y="92" as="targetPoint" />
          </mxGeometry>
        </mxCell>
        <mxCell id="lTHJ1ySDXn06tNbgpZ6D-17" value="&amp;lt;&amp;lt;include&amp;gt;&amp;gt;" style="endArrow=open;endSize=12;dashed=1;html=1;rounded=0;" edge="1" parent="1" source="lTHJ1ySDXn06tNbgpZ6D-8" target="lTHJ1ySDXn06tNbgpZ6D-6">
          <mxGeometry width="160" relative="1" as="geometry">
            <mxPoint x="373" y="199" as="sourcePoint" />
            <mxPoint x="232" y="121" as="targetPoint" />
          </mxGeometry>
        </mxCell>
        <mxCell id="lTHJ1ySDXn06tNbgpZ6D-18" value="&amp;lt;&amp;lt;include&amp;gt;&amp;gt;" style="endArrow=open;endSize=12;dashed=1;html=1;rounded=0;" edge="1" parent="1" source="lTHJ1ySDXn06tNbgpZ6D-8" target="lTHJ1ySDXn06tNbgpZ6D-7">
          <mxGeometry width="160" relative="1" as="geometry">
            <mxPoint x="383" y="209" as="sourcePoint" />
            <mxPoint x="242" y="131" as="targetPoint" />
          </mxGeometry>
        </mxCell>
        <mxCell id="lTHJ1ySDXn06tNbgpZ6D-19" value="Создавать группу" style="ellipse;whiteSpace=wrap;html=1;" vertex="1" parent="1">
          <mxGeometry x="150" y="480" width="140" height="70" as="geometry" />
        </mxCell>
        <mxCell id="lTHJ1ySDXn06tNbgpZ6D-20" value="Добавлять участников" style="ellipse;whiteSpace=wrap;html=1;" vertex="1" parent="1">
          <mxGeometry x="310" y="480" width="140" height="70" as="geometry" />
        </mxCell>
        <mxCell id="lTHJ1ySDXn06tNbgpZ6D-21" value="Удалять участников" style="ellipse;whiteSpace=wrap;html=1;" vertex="1" parent="1">
          <mxGeometry x="470" y="480" width="140" height="70" as="geometry" />
        </mxCell>
        <mxCell id="lTHJ1ySDXn06tNbgpZ6D-22" value="Восстанавливать записи" style="ellipse;whiteSpace=wrap;html=1;" vertex="1" parent="1">
          <mxGeometry x="240" y="310" width="140" height="70" as="geometry" />
        </mxCell>
        <mxCell id="lTHJ1ySDXn06tNbgpZ6D-23" value="Рассылать сообщения" style="ellipse;whiteSpace=wrap;html=1;" vertex="1" parent="1">
          <mxGeometry x="630" y="480" width="140" height="70" as="geometry" />
        </mxCell>
        <mxCell id="lTHJ1ySDXn06tNbgpZ6D-24" value="Работа с группой" style="ellipse;whiteSpace=wrap;html=1;" vertex="1" parent="1">
          <mxGeometry x="390" y="360" width="140" height="70" as="geometry" />
        </mxCell>
        <mxCell id="lTHJ1ySDXn06tNbgpZ6D-25" value="" style="endArrow=open;endFill=1;endSize=12;html=1;rounded=0;" edge="1" parent="1" source="lTHJ1ySDXn06tNbgpZ6D-10" target="lTHJ1ySDXn06tNbgpZ6D-24">
          <mxGeometry width="160" relative="1" as="geometry">
            <mxPoint x="230" y="215" as="sourcePoint" />
            <mxPoint x="340" y="215" as="targetPoint" />
          </mxGeometry>
        </mxCell>
        <mxCell id="lTHJ1ySDXn06tNbgpZ6D-26" value="1..*" style="edgeLabel;html=1;align=center;verticalAlign=middle;resizable=0;points=[];" vertex="1" connectable="0" parent="lTHJ1ySDXn06tNbgpZ6D-25">
          <mxGeometry x="0.4364" y="1" relative="1" as="geometry">
            <mxPoint x="-25" y="6" as="offset" />
          </mxGeometry>
        </mxCell>
        <mxCell id="lTHJ1ySDXn06tNbgpZ6D-27" value="&amp;lt;&amp;lt;include&amp;gt;&amp;gt;" style="endArrow=open;endSize=12;dashed=1;html=1;rounded=0;" edge="1" parent="1" source="lTHJ1ySDXn06tNbgpZ6D-24" target="lTHJ1ySDXn06tNbgpZ6D-19">
          <mxGeometry width="160" relative="1" as="geometry">
            <mxPoint x="315" y="398" as="sourcePoint" />
            <mxPoint x="174" y="320" as="targetPoint" />
          </mxGeometry>
        </mxCell>
        <mxCell id="lTHJ1ySDXn06tNbgpZ6D-28" value="&amp;lt;&amp;lt;include&amp;gt;&amp;gt;" style="endArrow=open;endSize=12;dashed=1;html=1;rounded=0;" edge="1" parent="1" source="lTHJ1ySDXn06tNbgpZ6D-24" target="lTHJ1ySDXn06tNbgpZ6D-20">
          <mxGeometry width="160" relative="1" as="geometry">
            <mxPoint x="566" y="398" as="sourcePoint" />
            <mxPoint x="425" y="320" as="targetPoint" />
          </mxGeometry>
        </mxCell>
        <mxCell id="lTHJ1ySDXn06tNbgpZ6D-29" value="&amp;lt;&amp;lt;include&amp;gt;&amp;gt;" style="endArrow=open;endSize=12;dashed=1;html=1;rounded=0;" edge="1" parent="1" source="lTHJ1ySDXn06tNbgpZ6D-24" target="lTHJ1ySDXn06tNbgpZ6D-21">
          <mxGeometry width="160" relative="1" as="geometry">
            <mxPoint x="656" y="408" as="sourcePoint" />
            <mxPoint x="515" y="330" as="targetPoint" />
          </mxGeometry>
        </mxCell>
        <mxCell id="lTHJ1ySDXn06tNbgpZ6D-30" value="&amp;lt;&amp;lt;include&amp;gt;&amp;gt;" style="endArrow=open;endSize=12;dashed=1;html=1;rounded=0;" edge="1" parent="1" source="lTHJ1ySDXn06tNbgpZ6D-24" target="lTHJ1ySDXn06tNbgpZ6D-23">
          <mxGeometry width="160" relative="1" as="geometry">
            <mxPoint x="518" y="269" as="sourcePoint" />
            <mxPoint x="377" y="191" as="targetPoint" />
          </mxGeometry>
        </mxCell>
        <mxCell id="lTHJ1ySDXn06tNbgpZ6D-33" value="&amp;lt;&amp;lt;extend&amp;gt;&amp;gt;" style="endArrow=open;endSize=12;dashed=1;html=1;rounded=0;" edge="1" parent="1" source="lTHJ1ySDXn06tNbgpZ6D-22" target="lTHJ1ySDXn06tNbgpZ6D-8">
          <mxGeometry width="160" relative="1" as="geometry">
            <mxPoint x="275.5" y="378" as="sourcePoint" />
            <mxPoint x="134.5" y="300" as="targetPoint" />
          </mxGeometry>
        </mxCell>
        <mxCell id="lTHJ1ySDXn06tNbgpZ6D-34" value="" style="endArrow=open;endFill=1;endSize=12;html=1;rounded=0;" edge="1" parent="1" source="lTHJ1ySDXn06tNbgpZ6D-10" target="lTHJ1ySDXn06tNbgpZ6D-22">
          <mxGeometry width="160" relative="1" as="geometry">
            <mxPoint x="512.5" y="223" as="sourcePoint" />
            <mxPoint x="420" y="330" as="targetPoint" />
          </mxGeometry>
        </mxCell>
        <mxCell id="lTHJ1ySDXn06tNbgpZ6D-35" value="1..*" style="edgeLabel;html=1;align=center;verticalAlign=middle;resizable=0;points=[];" vertex="1" connectable="0" parent="lTHJ1ySDXn06tNbgpZ6D-34">
          <mxGeometry x="0.4364" y="1" relative="1" as="geometry">
            <mxPoint x="-56" y="9" as="offset" />
          </mxGeometry>
        </mxCell>
        <mxCell id="lTHJ1ySDXn06tNbgpZ6D-36" value="Пользователь" style="shape=umlActor;verticalLabelPosition=bottom;verticalAlign=top;html=1;" vertex="1" parent="1">
          <mxGeometry x="140" y="-120" width="30" height="60" as="geometry" />
        </mxCell>
        <mxCell id="lTHJ1ySDXn06tNbgpZ6D-37" value="" style="endArrow=block;endSize=16;endFill=0;html=1;rounded=0;" edge="1" parent="1" source="lTHJ1ySDXn06tNbgpZ6D-9" target="lTHJ1ySDXn06tNbgpZ6D-36">
          <mxGeometry width="160" relative="1" as="geometry">
            <mxPoint x="-10" y="204.5" as="sourcePoint" />
            <mxPoint x="150" y="204.5" as="targetPoint" />
            <Array as="points">
              <mxPoint y="205" />
              <mxPoint y="-90" />
            </Array>
          </mxGeometry>
        </mxCell>
        <mxCell id="lTHJ1ySDXn06tNbgpZ6D-38" value="" style="endArrow=block;endSize=16;endFill=0;html=1;rounded=0;" edge="1" parent="1" source="lTHJ1ySDXn06tNbgpZ6D-10" target="lTHJ1ySDXn06tNbgpZ6D-36">
          <mxGeometry width="160" relative="1" as="geometry">
            <mxPoint x="350" y="125" as="sourcePoint" />
            <mxPoint x="310" y="-110" as="targetPoint" />
            <Array as="points">
              <mxPoint x="780" y="205" />
              <mxPoint x="780" y="-90" />
            </Array>
          </mxGeometry>
        </mxCell>
        <mxCell id="lTHJ1ySDXn06tNbgpZ6D-39" value="Авторизация/Регистрация" style="ellipse;whiteSpace=wrap;html=1;" vertex="1" parent="1">
          <mxGeometry x="60" y="-260" width="140" height="70" as="geometry" />
        </mxCell>
        <mxCell id="lTHJ1ySDXn06tNbgpZ6D-40" value="Редактирование данных" style="ellipse;whiteSpace=wrap;html=1;" vertex="1" parent="1">
          <mxGeometry x="220" y="-260" width="140" height="70" as="geometry" />
        </mxCell>
        <mxCell id="lTHJ1ySDXn06tNbgpZ6D-41" value="" style="endArrow=open;endFill=1;endSize=12;html=1;rounded=0;" edge="1" parent="1" source="lTHJ1ySDXn06tNbgpZ6D-36" target="lTHJ1ySDXn06tNbgpZ6D-39">
          <mxGeometry width="160" relative="1" as="geometry">
            <mxPoint x="-50" y="-190" as="sourcePoint" />
            <mxPoint x="60" y="-190" as="targetPoint" />
          </mxGeometry>
        </mxCell>
        <mxCell id="lTHJ1ySDXn06tNbgpZ6D-43" value="" style="endArrow=open;endFill=1;endSize=12;html=1;rounded=0;" edge="1" parent="1" source="lTHJ1ySDXn06tNbgpZ6D-36" target="lTHJ1ySDXn06tNbgpZ6D-40">
          <mxGeometry width="160" relative="1" as="geometry">
            <mxPoint x="290" y="-110" as="sourcePoint" />
            <mxPoint x="277" y="-180" as="targetPoint" />
          </mxGeometry>
        </mxCell>
      </root>
    </mxGraphModel>
  </diagram>
</mxfile>
